<mxfile host="app.diagrams.net" agent="Mozilla/5.0 (Windows NT 10.0; Win64; x64) AppleWebKit/537.36 (KHTML, like Gecko) Chrome/140.0.0.0 Safari/537.36" version="28.2.5">
  <diagram name="Page-1" id="JpLjQRSs1_Y3-2fLoofl">
    <mxGraphModel dx="1737" dy="937" grid="1" gridSize="10" guides="1" tooltips="1" connect="1" arrows="1" fold="1" page="1" pageScale="1" pageWidth="850" pageHeight="1100" math="0" shadow="0">
      <root>
        <mxCell id="0" />
        <mxCell id="1" parent="0" />
        <mxCell id="bUwDgFJh5-zK0ynBWb4o-1" value="" style="rounded=0;whiteSpace=wrap;html=1;" parent="1" vertex="1">
          <mxGeometry x="40" y="40" width="1150" height="980" as="geometry" />
        </mxCell>
        <mxCell id="bUwDgFJh5-zK0ynBWb4o-3" value="&amp;lt;data-platform&amp;gt;&lt;br&gt;Delivery Notification&lt;br&gt;Worker" style="aspect=fixed;sketch=0;html=1;dashed=0;whitespace=wrap;verticalLabelPosition=bottom;verticalAlign=top;fillColor=#2875E2;strokeColor=#ffffff;points=[[0.005,0.63,0],[0.1,0.2,0],[0.9,0.2,0],[0.5,0,0],[0.995,0.63,0],[0.72,0.99,0],[0.5,1,0],[0.28,0.99,0]];shape=mxgraph.kubernetes.icon2;prIcon=api" parent="1" vertex="1">
          <mxGeometry x="90" y="890" width="50" height="48" as="geometry" />
        </mxCell>
        <mxCell id="bUwDgFJh5-zK0ynBWb4o-6" value="&amp;lt;foundation&amp;gt;&lt;br&gt;Message&lt;div&gt;Queues&lt;br&gt;&lt;/div&gt;" style="aspect=fixed;sketch=0;html=1;dashed=0;whitespace=wrap;verticalLabelPosition=bottom;verticalAlign=top;fillColor=#2875E2;strokeColor=#ffffff;points=[[0.005,0.63,0],[0.1,0.2,0],[0.9,0.2,0],[0.5,0,0],[0.995,0.63,0],[0.72,0.99,0],[0.5,1,0],[0.28,0.99,0]];shape=mxgraph.kubernetes.icon2;prIcon=api" parent="1" vertex="1">
          <mxGeometry x="90" y="630" width="50" height="48" as="geometry" />
        </mxCell>
        <mxCell id="bUwDgFJh5-zK0ynBWb4o-7" style="edgeStyle=orthogonalEdgeStyle;rounded=0;orthogonalLoop=1;jettySize=auto;html=1;" parent="1" source="bUwDgFJh5-zK0ynBWb4o-3" edge="1">
          <mxGeometry relative="1" as="geometry">
            <mxPoint x="115" y="730" as="targetPoint" />
          </mxGeometry>
        </mxCell>
        <mxCell id="bUwDgFJh5-zK0ynBWb4o-8" value="Text" style="edgeLabel;html=1;align=center;verticalAlign=middle;resizable=0;points=[];" parent="bUwDgFJh5-zK0ynBWb4o-7" vertex="1" connectable="0">
          <mxGeometry x="-0.0952" y="-4" relative="1" as="geometry">
            <mxPoint x="-1" as="offset" />
          </mxGeometry>
        </mxCell>
        <mxCell id="bUwDgFJh5-zK0ynBWb4o-9" value="&lt;code&gt;&lt;font style=&quot;color: rgb(255, 179, 102);&quot;&gt;POST&lt;/font&gt;&lt;br&gt;delivery&lt;br&gt;Update&lt;br&gt;Notification&lt;/code&gt;&lt;div&gt;&lt;code&gt;endpoint&lt;/code&gt;&lt;/div&gt;" style="edgeLabel;html=1;align=center;verticalAlign=middle;resizable=0;points=[];" parent="bUwDgFJh5-zK0ynBWb4o-7" vertex="1" connectable="0">
          <mxGeometry x="-0.0613" y="-4" relative="1" as="geometry">
            <mxPoint x="-1" as="offset" />
          </mxGeometry>
        </mxCell>
        <mxCell id="bUwDgFJh5-zK0ynBWb4o-11" value="&amp;lt;foundation&amp;gt;&lt;br&gt;Live&lt;div&gt;Truck&lt;/div&gt;&lt;div&gt;Notification&lt;/div&gt;&lt;div&gt;Worker&lt;div&gt;&lt;br&gt;&lt;/div&gt;&lt;/div&gt;" style="aspect=fixed;sketch=0;html=1;dashed=0;whitespace=wrap;verticalLabelPosition=bottom;verticalAlign=top;fillColor=#2875E2;strokeColor=#ffffff;points=[[0.005,0.63,0],[0.1,0.2,0],[0.9,0.2,0],[0.5,0,0],[0.995,0.63,0],[0.72,0.99,0],[0.5,1,0],[0.28,0.99,0]];shape=mxgraph.kubernetes.icon2;prIcon=api" parent="1" vertex="1">
          <mxGeometry x="90" y="380" width="50" height="48" as="geometry" />
        </mxCell>
        <mxCell id="bUwDgFJh5-zK0ynBWb4o-17" value="&amp;lt;foundation&amp;gt;&lt;br&gt;Subscriptions API&lt;br&gt;&lt;div&gt;&lt;div&gt;&lt;br&gt;&lt;/div&gt;&lt;/div&gt;" style="aspect=fixed;sketch=0;html=1;dashed=0;whitespace=wrap;verticalLabelPosition=bottom;verticalAlign=top;fillColor=#2875E2;strokeColor=#ffffff;points=[[0.005,0.63,0],[0.1,0.2,0],[0.9,0.2,0],[0.5,0,0],[0.995,0.63,0],[0.72,0.99,0],[0.5,1,0],[0.28,0.99,0]];shape=mxgraph.kubernetes.icon2;prIcon=api" parent="1" vertex="1">
          <mxGeometry x="880" y="380" width="50" height="48" as="geometry" />
        </mxCell>
        <mxCell id="bUwDgFJh5-zK0ynBWb4o-19" value="&amp;lt;foundation&amp;gt;&lt;br&gt;Configurations API&lt;br&gt;&lt;div&gt;&lt;div&gt;&lt;br&gt;&lt;/div&gt;&lt;/div&gt;" style="aspect=fixed;sketch=0;html=1;dashed=0;whitespace=wrap;verticalLabelPosition=bottom;verticalAlign=top;fillColor=#2875E2;strokeColor=#ffffff;points=[[0.005,0.63,0],[0.1,0.2,0],[0.9,0.2,0],[0.5,0,0],[0.995,0.63,0],[0.72,0.99,0],[0.5,1,0],[0.28,0.99,0]];shape=mxgraph.kubernetes.icon2;prIcon=api" parent="1" vertex="1">
          <mxGeometry x="850" y="100" width="50" height="48" as="geometry" />
        </mxCell>
        <mxCell id="bUwDgFJh5-zK0ynBWb4o-20" value="&amp;lt;foundation&amp;gt;&lt;br&gt;Deliveries API&lt;br&gt;&lt;div&gt;&lt;div&gt;&lt;br&gt;&lt;/div&gt;&lt;/div&gt;" style="aspect=fixed;sketch=0;html=1;dashed=0;whitespace=wrap;verticalLabelPosition=bottom;verticalAlign=top;fillColor=#2875E2;strokeColor=#ffffff;points=[[0.005,0.63,0],[0.1,0.2,0],[0.9,0.2,0],[0.5,0,0],[0.995,0.63,0],[0.72,0.99,0],[0.5,1,0],[0.28,0.99,0]];shape=mxgraph.kubernetes.icon2;prIcon=api" parent="1" vertex="1">
          <mxGeometry x="1020" y="480" width="50" height="48" as="geometry" />
        </mxCell>
        <mxCell id="bUwDgFJh5-zK0ynBWb4o-21" value="&amp;lt;foundation&amp;gt;&lt;br&gt;Orders API&lt;br&gt;&lt;div&gt;&lt;div&gt;&lt;br&gt;&lt;/div&gt;&lt;/div&gt;" style="aspect=fixed;sketch=0;html=1;dashed=0;whitespace=wrap;verticalLabelPosition=bottom;verticalAlign=top;fillColor=#2875E2;strokeColor=#ffffff;points=[[0.005,0.63,0],[0.1,0.2,0],[0.9,0.2,0],[0.5,0,0],[0.995,0.63,0],[0.72,0.99,0],[0.5,1,0],[0.28,0.99,0]];shape=mxgraph.kubernetes.icon2;prIcon=api" parent="1" vertex="1">
          <mxGeometry x="980" y="290" width="50" height="48" as="geometry" />
        </mxCell>
        <mxCell id="bUwDgFJh5-zK0ynBWb4o-22" value="&amp;lt;foundation&amp;gt;&lt;br&gt;Identity API&lt;br&gt;&lt;div&gt;&lt;div&gt;&lt;br&gt;&lt;/div&gt;&lt;/div&gt;" style="aspect=fixed;sketch=0;html=1;dashed=0;whitespace=wrap;verticalLabelPosition=bottom;verticalAlign=top;fillColor=#2875E2;strokeColor=#ffffff;points=[[0.005,0.63,0],[0.1,0.2,0],[0.9,0.2,0],[0.5,0,0],[0.995,0.63,0],[0.72,0.99,0],[0.5,1,0],[0.28,0.99,0]];shape=mxgraph.kubernetes.icon2;prIcon=api" parent="1" vertex="1">
          <mxGeometry x="980" y="138" width="50" height="48" as="geometry" />
        </mxCell>
        <mxCell id="bUwDgFJh5-zK0ynBWb4o-25" value="&amp;lt;foundation&amp;gt;&lt;br&gt;Push Message Worker&lt;br&gt;&lt;div&gt;&lt;div&gt;&lt;br&gt;&lt;/div&gt;&lt;/div&gt;" style="aspect=fixed;sketch=0;html=1;dashed=0;whitespace=wrap;verticalLabelPosition=bottom;verticalAlign=top;fillColor=#2875E2;strokeColor=#ffffff;points=[[0.005,0.63,0],[0.1,0.2,0],[0.9,0.2,0],[0.5,0,0],[0.995,0.63,0],[0.72,0.99,0],[0.5,1,0],[0.28,0.99,0]];shape=mxgraph.kubernetes.icon2;prIcon=api" parent="1" vertex="1">
          <mxGeometry x="850" y="502" width="50" height="48" as="geometry" />
        </mxCell>
        <mxCell id="1HudzemWjimTBm2J36Nn-3" value="" style="endArrow=classic;html=1;rounded=0;exitX=0.5;exitY=0;exitDx=0;exitDy=0;exitPerimeter=0;" edge="1" parent="1" source="bUwDgFJh5-zK0ynBWb4o-6">
          <mxGeometry width="50" height="50" relative="1" as="geometry">
            <mxPoint x="260" y="560" as="sourcePoint" />
            <mxPoint x="115" y="510" as="targetPoint" />
          </mxGeometry>
        </mxCell>
        <mxCell id="1HudzemWjimTBm2J36Nn-4" value="" style="rounded=1;whiteSpace=wrap;html=1;" vertex="1" parent="1">
          <mxGeometry x="200" y="240" width="400" height="760" as="geometry" />
        </mxCell>
        <mxCell id="1HudzemWjimTBm2J36Nn-5" value="DeliveryUpdateNotificationListener" style="text;html=1;align=center;verticalAlign=middle;whiteSpace=wrap;rounded=0;" vertex="1" parent="1">
          <mxGeometry x="380" y="210" width="60" height="30" as="geometry" />
        </mxCell>
        <mxCell id="1HudzemWjimTBm2J36Nn-6" style="edgeStyle=orthogonalEdgeStyle;rounded=0;orthogonalLoop=1;jettySize=auto;html=1;entryX=0.003;entryY=0.055;entryDx=0;entryDy=0;entryPerimeter=0;" edge="1" parent="1" source="bUwDgFJh5-zK0ynBWb4o-11" target="1HudzemWjimTBm2J36Nn-4">
          <mxGeometry relative="1" as="geometry" />
        </mxCell>
      </root>
    </mxGraphModel>
  </diagram>
</mxfile>
